<svg viewBox="0 0 100 100" xmlns="http://www.w3.org/2000/svg">
  <defs>
    <linearGradient id="faviconGradient" x1="0%" y1="0%" x2="100%" y2="100%">
      <stop offset="0%" style="stop-color:#10A37F;stop-opacity:1" />
      <stop offset="50%" style="stop-color:#8B5CF6;stop-opacity:1" />
      <stop offset="100%" style="stop-color:#3B82F6;stop-opacity:1" />
    </linearGradient>
  </defs>
  
  <!-- Hexágono central -->
  <path d="M 50 15 L 70 28 L 70 54 L 50 67 L 30 54 L 30 28 Z" 
        fill="url(#faviconGradient)" 
        stroke="url(#faviconGradient)" 
        stroke-width="2"/>
  
  <!-- 6 nós externos -->
  <circle cx="50" cy="10" r="4" fill="url(#faviconGradient)"/>
  <circle cx="75" cy="25" r="4" fill="url(#faviconGradient)"/>
  <circle cx="75" cy="57" r="4" fill="url(#faviconGradient)"/>
  <circle cx="50" cy="72" r="4" fill="url(#faviconGradient)"/>
  <circle cx="25" cy="57" r="4" fill="url(#faviconGradient)"/>
  <circle cx="25" cy="25" r="4" fill="url(#faviconGradient)"/>
  
  <!-- Linhas de conexão -->
  <line x1="50" y1="15" x2="50" y2="10" stroke="url(#faviconGradient)" stroke-width="1.5" opacity="0.6"/>
  <line x1="70" y1="28" x2="75" y2="25" stroke="url(#faviconGradient)" stroke-width="1.5" opacity="0.6"/>
  <line x1="70" y1="54" x2="75" y2="57" stroke="url(#faviconGradient)" stroke-width="1.5" opacity="0.6"/>
  <line x1="50" y1="67" x2="50" y2="72" stroke="url(#faviconGradient)" stroke-width="1.5" opacity="0.6"/>
  <line x1="30" y1="54" x2="25" y2="57" stroke="url(#faviconGradient)" stroke-width="1.5" opacity="0.6"/>
  <line x1="30" y1="28" x2="25" y2="25" stroke="url(#faviconGradient)" stroke-width="1.5" opacity="0.6"/>
  
  <!-- Ponto central -->
  <circle cx="50" cy="41" r="3" fill="#fff" opacity="0.9"/>
</svg>
